# xmcd
#
# Track frame offsets:
#	150
#	17337
#	32487
#	45475
#	70025
#	89937
#	110237
#	128687
#	144912
#	160000
#	175562
#	189462
#	213600
#	233600
#	248087
#	268425
#	285712
#	303900
#
# Disc length: 4322 seconds
#
# Revision: 3
# Processed by: cddbd v1.5.2PL0 Copyright (c) Steve Scherf et al.
# Submitted via: EasyCDDAExtractor 15.2.5.1
#
DISCID=f610e012
DTITLE=Various Artist - Best Of Forever Love 18 Vol.3
DYEAR=1999
DGENRE=Blues
TTITLE0=The Color Of The Night
TTITLE1=Big Big World
TTITLE2=You Are The Love Of My Life
TTITLE3=To Love You More
TTITLE4=In Love With You
TTITLE5=Dreams
TTITLE6=I'll Be There For You
TTITLE7=Sukiyaki
TTITLE8=Close To You
TTITLE9=Try To Remember
TTITLE10=Because I Love You
TTITLE11=Dreaming
TTITLE12=When You Believe
TTITLE13=Out Here On My Own
TTITLE14=Just Once
TTITLE15=Paint My Love
TTITLE16=Memory
TTITLE17=Uninvited
EXTD=
EXTT0=
EXTT1=
EXTT2=
EXTT3=
EXTT4=
EXTT5=
EXTT6=
EXTT7=
EXTT8=
EXTT9=
EXTT10=
EXTT11=
EXTT12=
EXTT13=
EXTT14=
EXTT15=
EXTT16=
EXTT17=
PLAYORDER=
